<?xml version="1.0" encoding="UTF-8" standalone="no"?>
<!DOCTYPE svg PUBLIC "-//W3C//DTD SVG 1.1//EN" "http://www.w3.org/Graphics/SVG/1.1/DTD/svg11.dtd">
<svg xmlns="http://www.w3.org/2000/svg" version="1.1" viewBox="0.00 0.00 500.00 174.00">
<g stroke-width="5.00" fill="none" stroke-linecap="butt">
<path stroke="#7ab0ea" vector-effect="non-scaling-stroke" d="
  M 169.94 45.93
  C 166.40 41.29 158.09 39.68 153.69 36.11
  Q 150.23 33.31 147.68 29.68
  A 0.52 0.52 0.0 0 0 146.74 29.98
  Q 146.74 34.49 146.87 39.00
  C 147.19 49.90 152.49 61.55 164.99 61.95
  C 174.05 62.25 173.62 50.73 169.94 45.93"
/>
<path stroke="#7a746b" vector-effect="non-scaling-stroke" d="
  M 342.55 60.69
  A 0.94 0.94 0.0 0 0 342.65 62.53
  Q 343.25 62.62 344.05 62.38
  A 0.71 0.71 0.0 0 0 344.16 61.07
  Q 343.12 60.55 342.55 60.69"
/>
<path stroke="#7a746b" vector-effect="non-scaling-stroke" d="
  M 307.90 71.72
  Q 304.99 72.61 302.51 70.79
  A 0.46 0.46 0.0 0 0 301.78 71.14
  L 301.74 71.94
  Q 301.71 72.57 302.26 72.87
  Q 307.03 75.50 310.75 71.95
  Q 311.10 71.61 311.15 71.13
  C 311.56 67.14 307.26 66.73 304.59 65.72
  A 1.34 1.34 0.0 0 1 304.64 63.19
  Q 307.13 62.38 309.51 63.63
  A 0.49 0.49 0.0 0 0 310.20 63.36
  C 311.20 60.48 300.30 58.88 302.15 66.29
  Q 302.29 66.88 302.85 67.11
  L 308.01 69.21
  A 1.33 1.33 0.0 0 1 307.90 71.72"
/>
<path stroke="#7a746b" vector-effect="non-scaling-stroke" d="
  M 215.02 90.97
  L 214.99 64.62
  Q 214.99 64.00 214.37 64.00
  L 207.50 64.00
  Q 207.00 64.00 207.00 64.50
  L 207.00 110.50
  Q 207.00 111.00 207.50 111.00
  L 214.50 111.00
  Q 215.00 111.00 215.00 110.50
  Q 215.01 105.96 215.00 101.41
  Q 214.99 100.88 215.37 100.51
  L 219.40 96.47
  A 0.65 0.65 0.0 0 1 220.40 96.57
  L 229.82 110.42
  Q 230.22 111.00 230.92 111.00
  L 238.03 110.99
  Q 238.80 110.99 238.36 110.36
  L 225.61 91.99
  A 0.79 0.79 0.0 0 1 225.67 91.02
  L 237.17 78.05
  Q 237.66 77.50 236.92 77.50
  L 229.64 77.50
  A 1.34 1.34 0.0 0 0 228.64 77.95
  L 216.49 91.53
  Q 215.02 93.17 215.02 90.97"
/>
<path stroke="#7ae3bc" vector-effect="non-scaling-stroke" d="
  M 279.75 66.00
  L 279.27 66.00"
/>
<path stroke="#7a746b" vector-effect="non-scaling-stroke" d="
  M 279.27 66.00
  C 278.92 65.37 278.52 65.00 277.74 65.00
  Q 263.76 64.94 249.54 65.22
  A 0.55 0.55 0.0 0 0 249.00 65.77
  L 249.00 110.50
  Q 249.00 111.00 249.50 111.00
  L 256.75 111.00
  Q 257.25 111.00 257.25 110.50
  L 257.25 92.41
  Q 257.25 91.81 257.84 91.81
  L 275.36 91.72
  Q 276.00 91.72 276.00 91.08
  L 276.00 85.62
  Q 276.00 85.00 275.37 85.00
  L 258.32 85.00
  A 0.94 0.94 0.0 0 1 257.38 84.08
  L 257.20 74.16
  Q 257.16 72.46 258.86 72.46
  L 279.26 72.43"
/>
<path stroke="#7ae3bc" vector-effect="non-scaling-stroke" d="
  M 279.26 72.43
  Q 278.94 72.13 279.92 72.26"
/>
<path stroke="#7a746b" vector-effect="non-scaling-stroke" d="
  M 279.92 72.26
  Q 280.06 86.24 280.00 100.22
  C 279.95 110.83 286.38 113.43 295.70 109.83
  Q 296.22 109.63 296.18 109.07
  L 295.82 104.62
  A 0.30 0.30 0.0 0 1 296.35 104.40
  C 307.10 116.99 328.12 111.98 328.19 93.83
  Q 328.23 81.86 316.04 77.37
  C 313.75 76.52 307.42 76.82 305.22 77.60
  C 293.91 81.62 291.33 91.97 295.43 102.97
  Q 295.61 103.44 295.14 103.63
  C 293.03 104.47 288.25 104.91 288.26 100.99
  Q 288.28 82.78 288.23 64.51
  Q 288.23 63.92 287.65 63.94
  L 280.60 64.15
  Q 280.03 64.17 279.85 64.71
  Q 279.65 65.29 279.75 66.00"
/>
<path stroke="#007051" vector-effect="non-scaling-stroke" d="
  M 279.92 72.26
  L 279.75 66.00"
/>
<path stroke="#007051" vector-effect="non-scaling-stroke" d="
  M 279.27 66.00
  L 279.26 72.43"
/>
<path stroke="#7a746b" vector-effect="non-scaling-stroke" d="
  M 335.12 70.85
  C 334.62 69.86 333.19 63.88 331.47 64.62
  Q 331.00 64.82 331.17 65.29
  L 333.95 73.16
  A 1.52 1.52 0.0 0 0 336.82 73.16
  L 339.62 65.15
  A 0.62 0.62 0.0 0 0 338.68 64.43
  C 337.76 65.05 336.46 69.55 335.85 70.84
  Q 335.49 71.58 335.12 70.85"
/>
<path stroke="#7a746b" vector-effect="non-scaling-stroke" d="
  M 373.20 71.77
  C 372.48 73.27 370.00 72.33 368.74 71.61
  A 0.63 0.63 0.0 0 0 368.05 72.65
  Q 371.45 75.25 374.60 72.88
  A 2.14 2.13 37.1 0 0 374.08 69.19
  L 370.51 67.81
  A 0.94 0.94 0.0 0 1 370.55 66.04
  Q 372.41 65.40 374.27 66.32
  Q 374.69 66.53 374.94 66.13
  C 375.94 64.52 370.16 63.04 368.05 66.77
  A 0.79 0.78 40.1 0 0 368.13 67.66
  Q 369.80 69.69 372.36 70.13
  A 1.15 1.15 0.0 0 1 373.20 71.77"
/>
<path stroke="#7a746b" vector-effect="non-scaling-stroke" d="
  M 318.25 64.49
  C 312.90 63.80 310.56 70.91 315.57 73.49
  C 316.67 74.06 322.31 73.89 321.18 71.70
  A 0.55 0.54 -29.6 0 0 320.40 71.49
  C 318.60 72.61 315.08 73.26 315.13 70.32
  Q 315.14 69.75 315.70 69.75
  L 321.74 69.75
  Q 322.23 69.75 322.26 69.26
  Q 322.48 65.03 318.25 64.49"
/>
<path stroke="#7a746b" vector-effect="non-scaling-stroke" d="
  M 326.23 65.19
  Q 325.89 64.41 324.98 64.50
  Q 324.50 64.54 324.50 65.03
  Q 324.50 69.22 324.50 73.41
  Q 324.50 74.00 325.09 74.00
  L 325.68 74.00
  A 0.58 0.57 -90.0 0 0 326.25 73.42
  C 326.24 69.99 325.37 67.58 329.19 65.94
  Q 330.00 65.59 329.70 64.77
  A 0.53 0.53 0.0 0 0 328.94 64.49
  L 327.19 65.51
  Q 326.53 65.89 326.23 65.19"
/>
<path stroke="#7a746b" vector-effect="non-scaling-stroke" d="
  M 344.0029 65.2183
  A 0.70 0.70 0.0 0 0 343.3017 64.5195
  L 342.7017 64.5205
  A 0.70 0.70 0.0 0 0 342.0029 65.2218
  L 342.0171 73.3217
  A 0.70 0.70 0.0 0 0 342.7183 74.0205
  L 343.3183 74.0195
  A 0.70 0.70 0.0 0 0 344.0171 73.3182
  L 344.0029 65.2183"
/>
<path stroke="#7a746b" vector-effect="non-scaling-stroke" d="
  M 348.15 68.09
  C 349.68 63.71 353.71 68.10 354.51 66.52
  A 0.67 0.66 -58.2 0 0 354.32 65.70
  C 351.00 63.17 346.65 64.56 346.16 68.78
  C 345.68 72.91 351.47 76.04 354.24 72.51
  A 0.79 0.78 0.6 0 0 353.15 71.40
  C 350.72 73.23 347.06 71.22 348.15 68.09"
/>
<path stroke="#7a746b" vector-effect="non-scaling-stroke" d="
  M 359.24 71.47
  A 1.05 1.05 0.0 0 1 360.04 69.75
  L 365.25 69.75
  Q 365.84 69.75 365.93 69.17
  C 366.91 63.33 356.46 62.18 356.71 69.63
  C 356.85 73.77 362.66 75.74 365.12 72.09
  A 0.42 0.41 -83.5 0 0 364.63 71.47
  L 362.36 72.36
  Q 361.89 72.54 361.38 72.52
  Q 360.06 72.45 359.24 71.47"
/>
<path stroke="#7a746b" vector-effect="non-scaling-stroke" d="
  M 144.54 102.95
  C 148.36 103.19 152.91 101.87 153.37 97.81
  C 154.02 92.20 156.45 74.79 145.10 77.74
  A 1.09 1.08 83.4 0 1 143.74 76.66
  C 143.84 73.08 145.16 64.89 139.51 64.77
  Q 135.26 64.68 120.54 64.77
  C 114.09 64.81 115.31 72.15 115.55 76.29
  A 1.23 1.23 0.0 0 1 114.17 77.58
  C 104.10 76.32 105.44 85.46 105.49 92.11
  C 105.54 98.82 106.66 103.70 114.64 102.86
  A 0.60 0.60 0.0 0 1 115.31 103.39
  C 115.65 106.35 114.75 112.70 119.32 112.95
  Q 123.25 113.16 137.35 112.96
  C 145.14 112.85 143.31 109.22 143.88 103.52
  A 0.63 0.63 0.0 0 1 144.54 102.95"
/>
<path stroke="#7a746b" vector-effect="non-scaling-stroke" d="
  M 169.00 65.51
  A 0.26 0.26 0.0 0 0 168.74 65.25
  L 161.26 65.25
  A 0.26 0.26 0.0 0 0 161.00 65.51
  L 161.00 110.73
  A 0.26 0.26 0.0 0 0 161.26 110.99
  L 168.74 110.99
  A 0.26 0.26 0.0 0 0 169.00 110.73
  L 169.00 65.51"
/>
<path stroke="#7a746b" vector-effect="non-scaling-stroke" d="
  M 180.65 82.84
  L 180.43 77.83
  A 0.61 0.60 88.5 0 0 179.83 77.25
  L 173.63 77.25
  Q 173.00 77.25 173.00 77.88
  L 173.00 110.37
  Q 173.00 111.00 173.63 111.00
  L 180.69 111.00
  Q 181.26 111.00 181.25 110.43
  C 181.24 105.26 180.00 92.81 182.58 88.64
  C 184.96 84.80 192.20 81.16 195.15 86.79
  C 197.23 90.78 196.01 105.38 195.99 110.48
  Q 195.99 111.00 196.51 111.00
  L 203.48 111.00
  Q 203.98 111.00 203.98 110.50
  Q 204.06 98.74 203.94 87.01
  C 203.81 72.92 187.59 75.32 181.22 83.04
  A 0.32 0.32 0.0 0 1 180.65 82.84"
/>
<path stroke="#7a746b" vector-effect="non-scaling-stroke" d="
  M 361.75 102.20
  A 0.44 0.44 0.0 0 1 360.93 102.19
  L 356.95 91.88
  A 0.44 0.44 0.0 0 1 356.96 91.56
  L 362.41 78.13
  A 0.44 0.44 0.0 0 0 362.01 77.52
  L 356.46 77.45
  A 0.44 0.44 0.0 0 0 356.04 77.75
  L 352.79 86.99
  A 0.44 0.44 0.0 0 1 351.96 86.99
  L 348.84 77.86
  A 0.44 0.44 0.0 0 0 348.44 77.56
  L 342.78 77.36
  A 0.44 0.44 0.0 0 0 342.35 77.97
  L 347.89 91.67
  A 0.44 0.44 0.0 0 1 347.89 91.99
  L 344.01 102.07
  A 0.44 0.44 0.0 0 1 343.19 102.07
  L 333.48 77.53
  A 0.44 0.44 0.0 0 0 333.07 77.25
  L 326.41 77.25
  A 0.44 0.44 0.0 0 0 326.00 77.86
  L 339.70 110.73
  A 0.44 0.44 0.0 0 0 340.10 111.00
  L 346.19 111.00
  A 0.44 0.44 0.0 0 0 346.60 110.72
  L 351.97 96.86
  A 0.44 0.44 0.0 0 1 352.79 96.85
  L 358.31 110.75
  A 0.44 0.44 0.0 0 0 358.72 111.03
  L 364.75 110.93
  A 0.44 0.44 0.0 0 0 365.15 110.66
  L 378.90 77.86
  A 0.44 0.44 0.0 0 0 378.50 77.25
  L 371.81 77.25
  A 0.44 0.44 0.0 0 0 371.40 77.53
  L 361.75 102.20"
/>
<path stroke="#f5f1a3" vector-effect="non-scaling-stroke" d="
  M 404.48 118.90
  C 412.18 112.17 406.06 103.27 397.48 103.29
  Q 394.99 103.30 390.95 105.43
  C 384.91 108.61 378.90 112.40 371.83 111.99
  A 0.60 0.60 0.0 0 0 371.41 113.05
  C 379.25 119.71 395.19 127.01 404.48 118.90"
/>
<path stroke="#fa749b" vector-effect="non-scaling-stroke" d="
  M 362.97 116.47
  C 362.08 126.14 363.45 139.63 371.48 145.87
  C 374.72 148.40 383.93 151.95 386.99 146.94
  C 391.31 139.85 388.46 133.16 381.63 129.65
  C 374.03 125.75 368.62 123.84 363.67 116.30
  Q 363.07 115.39 362.97 116.47"
/>
<path stroke="#7ae3bc" vector-effect="non-scaling-stroke" d="
  M 355.44 117.23
  C 347.69 123.49 339.22 134.41 341.21 145.08
  C 344.47 162.48 364.98 154.66 359.16 138.36
  C 356.64 131.31 354.07 125.48 356.11 117.66
  A 0.42 0.42 0.0 0 0 355.44 117.23"
/>
<path stroke="#7a746b" vector-effect="non-scaling-stroke" d="
  M 310.8153 104.5299
  A 10.44 9.14 90.3 0 0 320.0099 94.1379
  A 10.44 9.14 90.3 0 0 310.9247 83.6501
  A 10.44 9.14 90.3 0 0 301.7301 94.0421
  A 10.44 9.14 90.3 0 0 310.8153 104.5299"
/>
<path stroke="#7a746b" vector-effect="non-scaling-stroke" d="
  M 315.46 68.50
  L 320.02 68.42
  A 0.18 0.18 0.0 0 0 320.20 68.23
  L 320.20 68.11
  A 2.38 2.18 -1.1 0 0 317.78 65.98
  L 317.62 65.98
  A 2.38 2.18 -1.1 0 0 315.28 68.21
  L 315.28 68.33
  A 0.18 0.18 0.0 0 0 315.46 68.50"
/>
<path stroke="#7a746b" vector-effect="non-scaling-stroke" d="
  M 359.50 68.55
  L 363.65 68.21
  A 0.29 0.29 0.0 0 0 363.91 67.89
  L 363.90 67.71
  A 2.21 2.13 -4.7 0 0 361.52 65.77
  L 361.20 65.80
  A 2.21 2.13 -4.7 0 0 359.18 68.10
  L 359.19 68.28
  A 0.29 0.29 0.0 0 0 359.50 68.55"
/>
<path stroke="#7a746b" vector-effect="non-scaling-stroke" d="
  M 140.5222 69.2680
  A 1.23 1.23 0.0 0 0 139.2965 68.0337
  L 120.0166 67.9664
  A 1.23 1.23 0.0 0 0 118.7823 69.1921
  L 118.7578 76.2120
  A 1.23 1.23 0.0 0 0 119.9835 77.4463
  L 139.2634 77.5136
  A 1.23 1.23 0.0 0 0 140.4977 76.2879
  L 140.5222 69.2680"
/>
<path stroke="#7a746b" vector-effect="non-scaling-stroke" d="
  M 142.47 92.25
  A 1.28 1.27 -90.0 0 1 143.74 93.53
  L 143.76 98.81
  Q 143.76 99.26 144.18 99.41
  C 148.64 101.04 150.54 98.89 150.51 94.58
  C 150.50 91.25 152.11 80.29 146.94 80.28
  Q 129.50 80.21 112.06 80.28
  C 110.23 80.28 109.00 82.20 109.00 84.07
  Q 109.00 89.62 109.00 95.20
  C 109.00 99.12 111.36 100.74 115.06 99.48
  A 0.61 0.60 81.0 0 0 115.46 98.92
  L 115.52 94.35
  A 2.13 2.13 0.0 0 1 117.65 92.25
  L 142.47 92.25"
/>
<path stroke="#7a746b" vector-effect="non-scaling-stroke" d="
  M 140.4567 96.1632
  A 0.98 0.98 0.0 0 0 139.4716 95.1883
  L 119.6919 95.2919
  A 0.98 0.98 0.0 0 0 118.7170 96.2770
  L 118.7833 108.9368
  A 0.98 0.98 0.0 0 0 119.7684 109.9117
  L 139.5481 109.8081
  A 0.98 0.98 0.0 0 0 140.5230 108.8230
  L 140.4567 96.1632"
/>
<path stroke="#7a746b" vector-effect="non-scaling-stroke" d="
  M 143.7997 86.4404
  A 2.89 1.57 0.8 0 0 140.9319 84.8302
  A 2.89 1.57 0.8 0 0 138.0203 86.3596
  A 2.89 1.57 0.8 0 0 140.8881 87.9698
  A 2.89 1.57 0.8 0 0 143.7997 86.4404"
/>
</g>
<path fill="#f4e7d5" d="
  M 0.00 0.00
  L 500.00 0.00
  L 500.00 174.00
  L 0.00 174.00
  L 0.00 0.00
  Z
  M 169.94 45.93
  C 166.40 41.29 158.09 39.68 153.69 36.11
  Q 150.23 33.31 147.68 29.68
  A 0.52 0.52 0.0 0 0 146.74 29.98
  Q 146.74 34.49 146.87 39.00
  C 147.19 49.90 152.49 61.55 164.99 61.95
  C 174.05 62.25 173.62 50.73 169.94 45.93
  Z
  M 342.55 60.69
  A 0.94 0.94 0.0 0 0 342.65 62.53
  Q 343.25 62.62 344.05 62.38
  A 0.71 0.71 0.0 0 0 344.16 61.07
  Q 343.12 60.55 342.55 60.69
  Z
  M 307.90 71.72
  Q 304.99 72.61 302.51 70.79
  A 0.46 0.46 0.0 0 0 301.78 71.14
  L 301.74 71.94
  Q 301.71 72.57 302.26 72.87
  Q 307.03 75.50 310.75 71.95
  Q 311.10 71.61 311.15 71.13
  C 311.56 67.14 307.26 66.73 304.59 65.72
  A 1.34 1.34 0.0 0 1 304.64 63.19
  Q 307.13 62.38 309.51 63.63
  A 0.49 0.49 0.0 0 0 310.20 63.36
  C 311.20 60.48 300.30 58.88 302.15 66.29
  Q 302.29 66.88 302.85 67.11
  L 308.01 69.21
  A 1.33 1.33 0.0 0 1 307.90 71.72
  Z
  M 215.02 90.97
  L 214.99 64.62
  Q 214.99 64.00 214.37 64.00
  L 207.50 64.00
  Q 207.00 64.00 207.00 64.50
  L 207.00 110.50
  Q 207.00 111.00 207.50 111.00
  L 214.50 111.00
  Q 215.00 111.00 215.00 110.50
  Q 215.01 105.96 215.00 101.41
  Q 214.99 100.88 215.37 100.51
  L 219.40 96.47
  A 0.65 0.65 0.0 0 1 220.40 96.57
  L 229.82 110.42
  Q 230.22 111.00 230.92 111.00
  L 238.03 110.99
  Q 238.80 110.99 238.36 110.36
  L 225.61 91.99
  A 0.79 0.79 0.0 0 1 225.67 91.02
  L 237.17 78.05
  Q 237.66 77.50 236.92 77.50
  L 229.64 77.50
  A 1.34 1.34 0.0 0 0 228.64 77.95
  L 216.49 91.53
  Q 215.02 93.17 215.02 90.97
  Z
  M 279.75 66.00
  L 279.27 66.00
  C 278.92 65.37 278.52 65.00 277.74 65.00
  Q 263.76 64.94 249.54 65.22
  A 0.55 0.55 0.0 0 0 249.00 65.77
  L 249.00 110.50
  Q 249.00 111.00 249.50 111.00
  L 256.75 111.00
  Q 257.25 111.00 257.25 110.50
  L 257.25 92.41
  Q 257.25 91.81 257.84 91.81
  L 275.36 91.72
  Q 276.00 91.72 276.00 91.08
  L 276.00 85.62
  Q 276.00 85.00 275.37 85.00
  L 258.32 85.00
  A 0.94 0.94 0.0 0 1 257.38 84.08
  L 257.20 74.16
  Q 257.16 72.46 258.86 72.46
  L 279.26 72.43
  Q 278.94 72.13 279.92 72.26
  Q 280.06 86.24 280.00 100.22
  C 279.95 110.83 286.38 113.43 295.70 109.83
  Q 296.22 109.63 296.18 109.07
  L 295.82 104.62
  A 0.30 0.30 0.0 0 1 296.35 104.40
  C 307.10 116.99 328.12 111.98 328.19 93.83
  Q 328.23 81.86 316.04 77.37
  C 313.75 76.52 307.42 76.82 305.22 77.60
  C 293.91 81.62 291.33 91.97 295.43 102.97
  Q 295.61 103.44 295.14 103.63
  C 293.03 104.47 288.25 104.91 288.26 100.99
  Q 288.28 82.78 288.23 64.51
  Q 288.23 63.92 287.65 63.94
  L 280.60 64.15
  Q 280.03 64.17 279.85 64.71
  Q 279.65 65.29 279.75 66.00
  Z
  M 335.12 70.85
  C 334.62 69.86 333.19 63.88 331.47 64.62
  Q 331.00 64.82 331.17 65.29
  L 333.95 73.16
  A 1.52 1.52 0.0 0 0 336.82 73.16
  L 339.62 65.15
  A 0.62 0.62 0.0 0 0 338.68 64.43
  C 337.76 65.05 336.46 69.55 335.85 70.84
  Q 335.49 71.58 335.12 70.85
  Z
  M 373.20 71.77
  C 372.48 73.27 370.00 72.33 368.74 71.61
  A 0.63 0.63 0.0 0 0 368.05 72.65
  Q 371.45 75.25 374.60 72.88
  A 2.14 2.13 37.1 0 0 374.08 69.19
  L 370.51 67.81
  A 0.94 0.94 0.0 0 1 370.55 66.04
  Q 372.41 65.40 374.27 66.32
  Q 374.69 66.53 374.94 66.13
  C 375.94 64.52 370.16 63.04 368.05 66.77
  A 0.79 0.78 40.1 0 0 368.13 67.66
  Q 369.80 69.69 372.36 70.13
  A 1.15 1.15 0.0 0 1 373.20 71.77
  Z
  M 318.25 64.49
  C 312.90 63.80 310.56 70.91 315.57 73.49
  C 316.67 74.06 322.31 73.89 321.18 71.70
  A 0.55 0.54 -29.6 0 0 320.40 71.49
  C 318.60 72.61 315.08 73.26 315.13 70.32
  Q 315.14 69.75 315.70 69.75
  L 321.74 69.75
  Q 322.23 69.75 322.26 69.26
  Q 322.48 65.03 318.25 64.49
  Z
  M 326.23 65.19
  Q 325.89 64.41 324.98 64.50
  Q 324.50 64.54 324.50 65.03
  Q 324.50 69.22 324.50 73.41
  Q 324.50 74.00 325.09 74.00
  L 325.68 74.00
  A 0.58 0.57 -90.0 0 0 326.25 73.42
  C 326.24 69.99 325.37 67.58 329.19 65.94
  Q 330.00 65.59 329.70 64.77
  A 0.53 0.53 0.0 0 0 328.94 64.49
  L 327.19 65.51
  Q 326.53 65.89 326.23 65.19
  Z
  M 344.0029 65.2183
  A 0.70 0.70 0.0 0 0 343.3017 64.5195
  L 342.7017 64.5205
  A 0.70 0.70 0.0 0 0 342.0029 65.2218
  L 342.0171 73.3217
  A 0.70 0.70 0.0 0 0 342.7183 74.0205
  L 343.3183 74.0195
  A 0.70 0.70 0.0 0 0 344.0171 73.3182
  L 344.0029 65.2183
  Z
  M 348.15 68.09
  C 349.68 63.71 353.71 68.10 354.51 66.52
  A 0.67 0.66 -58.2 0 0 354.32 65.70
  C 351.00 63.17 346.65 64.56 346.16 68.78
  C 345.68 72.91 351.47 76.04 354.24 72.51
  A 0.79 0.78 0.6 0 0 353.15 71.40
  C 350.72 73.23 347.06 71.22 348.15 68.09
  Z
  M 359.24 71.47
  A 1.05 1.05 0.0 0 1 360.04 69.75
  L 365.25 69.75
  Q 365.84 69.75 365.93 69.17
  C 366.91 63.33 356.46 62.18 356.71 69.63
  C 356.85 73.77 362.66 75.74 365.12 72.09
  A 0.42 0.41 -83.5 0 0 364.63 71.47
  L 362.36 72.36
  Q 361.89 72.54 361.38 72.52
  Q 360.06 72.45 359.24 71.47
  Z
  M 144.54 102.95
  C 148.36 103.19 152.91 101.87 153.37 97.81
  C 154.02 92.20 156.45 74.79 145.10 77.74
  A 1.09 1.08 83.4 0 1 143.74 76.66
  C 143.84 73.08 145.16 64.89 139.51 64.77
  Q 135.26 64.68 120.54 64.77
  C 114.09 64.81 115.31 72.15 115.55 76.29
  A 1.23 1.23 0.0 0 1 114.17 77.58
  C 104.10 76.32 105.44 85.46 105.49 92.11
  C 105.54 98.82 106.66 103.70 114.64 102.86
  A 0.60 0.60 0.0 0 1 115.31 103.39
  C 115.65 106.35 114.75 112.70 119.32 112.95
  Q 123.25 113.16 137.35 112.96
  C 145.14 112.85 143.31 109.22 143.88 103.52
  A 0.63 0.63 0.0 0 1 144.54 102.95
  Z
  M 169.00 65.51
  A 0.26 0.26 0.0 0 0 168.74 65.25
  L 161.26 65.25
  A 0.26 0.26 0.0 0 0 161.00 65.51
  L 161.00 110.73
  A 0.26 0.26 0.0 0 0 161.26 110.99
  L 168.74 110.99
  A 0.26 0.26 0.0 0 0 169.00 110.73
  L 169.00 65.51
  Z
  M 180.65 82.84
  L 180.43 77.83
  A 0.61 0.60 88.5 0 0 179.83 77.25
  L 173.63 77.25
  Q 173.00 77.25 173.00 77.88
  L 173.00 110.37
  Q 173.00 111.00 173.63 111.00
  L 180.69 111.00
  Q 181.26 111.00 181.25 110.43
  C 181.24 105.26 180.00 92.81 182.58 88.64
  C 184.96 84.80 192.20 81.16 195.15 86.79
  C 197.23 90.78 196.01 105.38 195.99 110.48
  Q 195.99 111.00 196.51 111.00
  L 203.48 111.00
  Q 203.98 111.00 203.98 110.50
  Q 204.06 98.74 203.94 87.01
  C 203.81 72.92 187.59 75.32 181.22 83.04
  A 0.32 0.32 0.0 0 1 180.65 82.84
  Z
  M 361.75 102.20
  A 0.44 0.44 0.0 0 1 360.93 102.19
  L 356.95 91.88
  A 0.44 0.44 0.0 0 1 356.96 91.56
  L 362.41 78.13
  A 0.44 0.44 0.0 0 0 362.01 77.52
  L 356.46 77.45
  A 0.44 0.44 0.0 0 0 356.04 77.75
  L 352.79 86.99
  A 0.44 0.44 0.0 0 1 351.96 86.99
  L 348.84 77.86
  A 0.44 0.44 0.0 0 0 348.44 77.56
  L 342.78 77.36
  A 0.44 0.44 0.0 0 0 342.35 77.97
  L 347.89 91.67
  A 0.44 0.44 0.0 0 1 347.89 91.99
  L 344.01 102.07
  A 0.44 0.44 0.0 0 1 343.19 102.07
  L 333.48 77.53
  A 0.44 0.44 0.0 0 0 333.07 77.25
  L 326.41 77.25
  A 0.44 0.44 0.0 0 0 326.00 77.86
  L 339.70 110.73
  A 0.44 0.44 0.0 0 0 340.10 111.00
  L 346.19 111.00
  A 0.44 0.44 0.0 0 0 346.60 110.72
  L 351.97 96.86
  A 0.44 0.44 0.0 0 1 352.79 96.85
  L 358.31 110.75
  A 0.44 0.44 0.0 0 0 358.72 111.03
  L 364.75 110.93
  A 0.44 0.44 0.0 0 0 365.15 110.66
  L 378.90 77.86
  A 0.44 0.44 0.0 0 0 378.50 77.25
  L 371.81 77.25
  A 0.44 0.44 0.0 0 0 371.40 77.53
  L 361.75 102.20
  Z
  M 404.48 118.90
  C 412.18 112.17 406.06 103.27 397.48 103.29
  Q 394.99 103.30 390.95 105.43
  C 384.91 108.61 378.90 112.40 371.83 111.99
  A 0.60 0.60 0.0 0 0 371.41 113.05
  C 379.25 119.71 395.19 127.01 404.48 118.90
  Z
  M 362.97 116.47
  C 362.08 126.14 363.45 139.63 371.48 145.87
  C 374.72 148.40 383.93 151.95 386.99 146.94
  C 391.31 139.85 388.46 133.16 381.63 129.65
  C 374.03 125.75 368.62 123.84 363.67 116.30
  Q 363.07 115.39 362.97 116.47
  Z
  M 355.44 117.23
  C 347.69 123.49 339.22 134.41 341.21 145.08
  C 344.47 162.48 364.98 154.66 359.16 138.36
  C 356.64 131.31 354.07 125.48 356.11 117.66
  A 0.42 0.42 0.0 0 0 355.44 117.23
  Z"
/>
<path fill="#0079ff" d="
  M 169.94 45.93
  C 173.62 50.73 174.05 62.25 164.99 61.95
  C 152.49 61.55 147.19 49.90 146.87 39.00
  Q 146.74 34.49 146.74 29.98
  A 0.52 0.52 0.0 0 1 147.68 29.68
  Q 150.23 33.31 153.69 36.11
  C 158.09 39.68 166.40 41.29 169.94 45.93
  Z"
/>
<path fill="#000000" d="
  M 342.55 60.69
  Q 343.12 60.55 344.16 61.07
  A 0.71 0.71 0.0 0 1 344.05 62.38
  Q 343.25 62.62 342.65 62.53
  A 0.94 0.94 0.0 0 1 342.55 60.69
  Z"
/>
<path fill="#000000" d="
  M 307.90 71.72
  A 1.33 1.33 0.0 0 0 308.01 69.21
  L 302.85 67.11
  Q 302.29 66.88 302.15 66.29
  C 300.30 58.88 311.20 60.48 310.20 63.36
  A 0.49 0.49 0.0 0 1 309.51 63.63
  Q 307.13 62.38 304.64 63.19
  A 1.34 1.34 0.0 0 0 304.59 65.72
  C 307.26 66.73 311.56 67.14 311.15 71.13
  Q 311.10 71.61 310.75 71.95
  Q 307.03 75.50 302.26 72.87
  Q 301.71 72.57 301.74 71.94
  L 301.78 71.14
  A 0.46 0.46 0.0 0 1 302.51 70.79
  Q 304.99 72.61 307.90 71.72
  Z"
/>
<path fill="#000000" d="
  M 215.02 90.97
  Q 215.02 93.17 216.49 91.53
  L 228.64 77.95
  A 1.34 1.34 0.0 0 1 229.64 77.50
  L 236.92 77.50
  Q 237.66 77.50 237.17 78.05
  L 225.67 91.02
  A 0.79 0.79 0.0 0 0 225.61 91.99
  L 238.36 110.36
  Q 238.80 110.99 238.03 110.99
  L 230.92 111.00
  Q 230.22 111.00 229.82 110.42
  L 220.40 96.57
  A 0.65 0.65 0.0 0 0 219.40 96.47
  L 215.37 100.51
  Q 214.99 100.88 215.00 101.41
  Q 215.01 105.96 215.00 110.50
  Q 215.00 111.00 214.50 111.00
  L 207.50 111.00
  Q 207.00 111.00 207.00 110.50
  L 207.00 64.50
  Q 207.00 64.00 207.50 64.00
  L 214.37 64.00
  Q 214.99 64.00 214.99 64.62
  L 215.02 90.97
  Z"
/>
<path fill="#000000" d="
  M 279.92 72.26
  L 279.75 66.00
  Q 279.65 65.29 279.85 64.71
  Q 280.03 64.17 280.60 64.15
  L 287.65 63.94
  Q 288.23 63.92 288.23 64.51
  Q 288.28 82.78 288.26 100.99
  C 288.25 104.91 293.03 104.47 295.14 103.63
  Q 295.61 103.44 295.43 102.97
  C 291.33 91.97 293.91 81.62 305.22 77.60
  C 307.42 76.82 313.75 76.52 316.04 77.37
  Q 328.23 81.86 328.19 93.83
  C 328.12 111.98 307.10 116.99 296.35 104.40
  A 0.30 0.30 0.0 0 0 295.82 104.62
  L 296.18 109.07
  Q 296.22 109.63 295.70 109.83
  C 286.38 113.43 279.95 110.83 280.00 100.22
  Q 280.06 86.24 279.92 72.26
  Z
  M 310.8153 104.5299
  A 10.44 9.14 90.3 0 0 320.0099 94.1379
  A 10.44 9.14 90.3 0 0 310.9247 83.6501
  A 10.44 9.14 90.3 0 0 301.7301 94.0421
  A 10.44 9.14 90.3 0 0 310.8153 104.5299
  Z"
/>
<path fill="#000000" d="
  M 335.85 70.84
  C 336.46 69.55 337.76 65.05 338.68 64.43
  A 0.62 0.62 0.0 0 1 339.62 65.15
  L 336.82 73.16
  A 1.52 1.52 0.0 0 1 333.95 73.16
  L 331.17 65.29
  Q 331.00 64.82 331.47 64.62
  C 333.19 63.88 334.62 69.86 335.12 70.85
  Q 335.49 71.58 335.85 70.84
  Z"
/>
<path fill="#000000" d="
  M 373.20 71.77
  A 1.15 1.15 0.0 0 0 372.36 70.13
  Q 369.80 69.69 368.13 67.66
  A 0.79 0.78 40.1 0 1 368.05 66.77
  C 370.16 63.04 375.94 64.52 374.94 66.13
  Q 374.69 66.53 374.27 66.32
  Q 372.41 65.40 370.55 66.04
  A 0.94 0.94 0.0 0 0 370.51 67.81
  L 374.08 69.19
  A 2.14 2.13 37.1 0 1 374.60 72.88
  Q 371.45 75.25 368.05 72.65
  A 0.63 0.63 0.0 0 1 368.74 71.61
  C 370.00 72.33 372.48 73.27 373.20 71.77
  Z"
/>
<path fill="#000000" d="
  M 315.57 73.49
  C 310.56 70.91 312.90 63.80 318.25 64.49
  Q 322.48 65.03 322.26 69.26
  Q 322.23 69.75 321.74 69.75
  L 315.70 69.75
  Q 315.14 69.75 315.13 70.32
  C 315.08 73.26 318.60 72.61 320.40 71.49
  A 0.55 0.54 -29.6 0 1 321.18 71.70
  C 322.31 73.89 316.67 74.06 315.57 73.49
  Z
  M 315.46 68.50
  L 320.02 68.42
  A 0.18 0.18 0.0 0 0 320.20 68.23
  L 320.20 68.11
  A 2.38 2.18 -1.1 0 0 317.78 65.98
  L 317.62 65.98
  A 2.38 2.18 -1.1 0 0 315.28 68.21
  L 315.28 68.33
  A 0.18 0.18 0.0 0 0 315.46 68.50
  Z"
/>
<path fill="#000000" d="
  M 327.19 65.51
  L 328.94 64.49
  A 0.53 0.53 0.0 0 1 329.70 64.77
  Q 330.00 65.59 329.19 65.94
  C 325.37 67.58 326.24 69.99 326.25 73.42
  A 0.58 0.57 -90.0 0 1 325.68 74.00
  L 325.09 74.00
  Q 324.50 74.00 324.50 73.41
  Q 324.50 69.22 324.50 65.03
  Q 324.50 64.54 324.98 64.50
  Q 325.89 64.41 326.23 65.19
  Q 326.53 65.89 327.19 65.51
  Z"
/>
<rect fill="#000000" x="-1.00" y="-4.75" transform="translate(343.01,69.27) rotate(-0.1)" width="2.00" height="9.50" rx="0.70"/>
<path fill="#000000" d="
  M 348.15 68.09
  C 347.06 71.22 350.72 73.23 353.15 71.40
  A 0.79 0.78 0.6 0 1 354.24 72.51
  C 351.47 76.04 345.68 72.91 346.16 68.78
  C 346.65 64.56 351.00 63.17 354.32 65.70
  A 0.67 0.66 -58.2 0 1 354.51 66.52
  C 353.71 68.10 349.68 63.71 348.15 68.09
  Z"
/>
<path fill="#000000" d="
  M 359.24 71.47
  Q 360.06 72.45 361.38 72.52
  Q 361.89 72.54 362.36 72.36
  L 364.63 71.47
  A 0.42 0.41 -83.5 0 1 365.12 72.09
  C 362.66 75.74 356.85 73.77 356.71 69.63
  C 356.46 62.18 366.91 63.33 365.93 69.17
  Q 365.84 69.75 365.25 69.75
  L 360.04 69.75
  A 1.05 1.05 0.0 0 0 359.24 71.47
  Z
  M 359.50 68.55
  L 363.65 68.21
  A 0.29 0.29 0.0 0 0 363.91 67.89
  L 363.90 67.71
  A 2.21 2.13 -4.7 0 0 361.52 65.77
  L 361.20 65.80
  A 2.21 2.13 -4.7 0 0 359.18 68.10
  L 359.19 68.28
  A 0.29 0.29 0.0 0 0 359.50 68.55
  Z"
/>
<path fill="#000000" d="
  M 143.88 103.52
  C 143.31 109.22 145.14 112.85 137.35 112.96
  Q 123.25 113.16 119.32 112.95
  C 114.75 112.70 115.65 106.35 115.31 103.39
  A 0.60 0.60 0.0 0 0 114.64 102.86
  C 106.66 103.70 105.54 98.82 105.49 92.11
  C 105.44 85.46 104.10 76.32 114.17 77.58
  A 1.23 1.23 0.0 0 0 115.55 76.29
  C 115.31 72.15 114.09 64.81 120.54 64.77
  Q 135.26 64.68 139.51 64.77
  C 145.16 64.89 143.84 73.08 143.74 76.66
  A 1.09 1.08 83.4 0 0 145.10 77.74
  C 156.45 74.79 154.02 92.20 153.37 97.81
  C 152.91 101.87 148.36 103.19 144.54 102.95
  A 0.63 0.63 0.0 0 0 143.88 103.52
  Z
  M 140.5222 69.2680
  A 1.23 1.23 0.0 0 0 139.2965 68.0337
  L 120.0166 67.9664
  A 1.23 1.23 0.0 0 0 118.7823 69.1921
  L 118.7578 76.2120
  A 1.23 1.23 0.0 0 0 119.9835 77.4463
  L 139.2634 77.5136
  A 1.23 1.23 0.0 0 0 140.4977 76.2879
  L 140.5222 69.2680
  Z
  M 142.47 92.25
  A 1.28 1.27 -90.0 0 1 143.74 93.53
  L 143.76 98.81
  Q 143.76 99.26 144.18 99.41
  C 148.64 101.04 150.54 98.89 150.51 94.58
  C 150.50 91.25 152.11 80.29 146.94 80.28
  Q 129.50 80.21 112.06 80.28
  C 110.23 80.28 109.00 82.20 109.00 84.07
  Q 109.00 89.62 109.00 95.20
  C 109.00 99.12 111.36 100.74 115.06 99.48
  A 0.61 0.60 81.0 0 0 115.46 98.92
  L 115.52 94.35
  A 2.13 2.13 0.0 0 1 117.65 92.25
  L 142.47 92.25
  Z
  M 140.4567 96.1632
  A 0.98 0.98 0.0 0 0 139.4716 95.1883
  L 119.6919 95.2919
  A 0.98 0.98 0.0 0 0 118.7170 96.2770
  L 118.7833 108.9368
  A 0.98 0.98 0.0 0 0 119.7684 109.9117
  L 139.5481 109.8081
  A 0.98 0.98 0.0 0 0 140.5230 108.8230
  L 140.4567 96.1632
  Z"
/>
<path fill="#000000" d="
  M 279.27 66.00
  L 279.26 72.43
  L 258.86 72.46
  Q 257.16 72.46 257.20 74.16
  L 257.38 84.08
  A 0.94 0.94 0.0 0 0 258.32 85.00
  L 275.37 85.00
  Q 276.00 85.00 276.00 85.62
  L 276.00 91.08
  Q 276.00 91.72 275.36 91.72
  L 257.84 91.81
  Q 257.25 91.81 257.25 92.41
  L 257.25 110.50
  Q 257.25 111.00 256.75 111.00
  L 249.50 111.00
  Q 249.00 111.00 249.00 110.50
  L 249.00 65.77
  A 0.55 0.55 0.0 0 1 249.54 65.22
  Q 263.76 64.94 277.74 65.00
  C 278.52 65.00 278.92 65.37 279.27 66.00
  Z"
/>
<rect fill="#000000" x="161.00" y="65.25" width="8.00" height="45.74" rx="0.26"/>
<path fill="#f4e7d5" d="
  M 359.50 68.55
  A 0.29 0.29 0.0 0 1 359.19 68.28
  L 359.18 68.10
  A 2.21 2.13 -4.7 0 1 361.20 65.80
  L 361.52 65.77
  A 2.21 2.13 -4.7 0 1 363.90 67.71
  L 363.91 67.89
  A 0.29 0.29 0.0 0 1 363.65 68.21
  L 359.50 68.55
  Z"
/>
<path fill="#00dfa2" d="
  M 279.27 66.00
  L 279.75 66.00
  L 279.92 72.26
  Q 278.94 72.13 279.26 72.43
  L 279.27 66.00
  Z"
/>
<path fill="#f4e7d5" d="
  M 315.46 68.50
  A 0.18 0.18 0.0 0 1 315.28 68.33
  L 315.28 68.21
  A 2.38 2.18 -1.1 0 1 317.62 65.98
  L 317.78 65.98
  A 2.38 2.18 -1.1 0 1 320.20 68.11
  L 320.20 68.23
  A 0.18 0.18 0.0 0 1 320.02 68.42
  L 315.46 68.50
  Z"
/>
<rect fill="#f4e7d5" x="-10.87" y="-4.74" transform="translate(129.64,72.74) rotate(0.2)" width="21.74" height="9.48" rx="1.23"/>
<path fill="#000000" d="
  M 180.65 82.84
  A 0.32 0.32 0.0 0 0 181.22 83.04
  C 187.59 75.32 203.81 72.92 203.94 87.01
  Q 204.06 98.74 203.98 110.50
  Q 203.98 111.00 203.48 111.00
  L 196.51 111.00
  Q 195.99 111.00 195.99 110.48
  C 196.01 105.38 197.23 90.78 195.15 86.79
  C 192.20 81.16 184.96 84.80 182.58 88.64
  C 180.00 92.81 181.24 105.26 181.25 110.43
  Q 181.26 111.00 180.69 111.00
  L 173.63 111.00
  Q 173.00 111.00 173.00 110.37
  L 173.00 77.88
  Q 173.00 77.25 173.63 77.25
  L 179.83 77.25
  A 0.61 0.60 88.5 0 1 180.43 77.83
  L 180.65 82.84
  Z"
/>
<path fill="#000000" d="
  M 361.75 102.20
  L 371.40 77.53
  A 0.44 0.44 0.0 0 1 371.81 77.25
  L 378.50 77.25
  A 0.44 0.44 0.0 0 1 378.90 77.86
  L 365.15 110.66
  A 0.44 0.44 0.0 0 1 364.75 110.93
  L 358.72 111.03
  A 0.44 0.44 0.0 0 1 358.31 110.75
  L 352.79 96.85
  A 0.44 0.44 0.0 0 0 351.97 96.86
  L 346.60 110.72
  A 0.44 0.44 0.0 0 1 346.19 111.00
  L 340.10 111.00
  A 0.44 0.44 0.0 0 1 339.70 110.73
  L 326.00 77.86
  A 0.44 0.44 0.0 0 1 326.41 77.25
  L 333.07 77.25
  A 0.44 0.44 0.0 0 1 333.48 77.53
  L 343.19 102.07
  A 0.44 0.44 0.0 0 0 344.01 102.07
  L 347.89 91.99
  A 0.44 0.44 0.0 0 0 347.89 91.67
  L 342.35 77.97
  A 0.44 0.44 0.0 0 1 342.78 77.36
  L 348.44 77.56
  A 0.44 0.44 0.0 0 1 348.84 77.86
  L 351.96 86.99
  A 0.44 0.44 0.0 0 0 352.79 86.99
  L 356.04 77.75
  A 0.44 0.44 0.0 0 1 356.46 77.45
  L 362.01 77.52
  A 0.44 0.44 0.0 0 1 362.41 78.13
  L 356.96 91.56
  A 0.44 0.44 0.0 0 0 356.95 91.88
  L 360.93 102.19
  A 0.44 0.44 0.0 0 0 361.75 102.20
  Z"
/>
<path fill="#f4e7d5" d="
  M 142.47 92.25
  L 117.65 92.25
  A 2.13 2.13 0.0 0 0 115.52 94.35
  L 115.46 98.92
  A 0.61 0.60 81.0 0 1 115.06 99.48
  C 111.36 100.74 109.00 99.12 109.00 95.20
  Q 109.00 89.62 109.00 84.07
  C 109.00 82.20 110.23 80.28 112.06 80.28
  Q 129.50 80.21 146.94 80.28
  C 152.11 80.29 150.50 91.25 150.51 94.58
  C 150.54 98.89 148.64 101.04 144.18 99.41
  Q 143.76 99.26 143.76 98.81
  L 143.74 93.53
  A 1.28 1.27 90.0 0 0 142.47 92.25
  Z
  M 143.7997 86.4404
  A 2.89 1.57 0.8 0 0 140.9319 84.8302
  A 2.89 1.57 0.8 0 0 138.0203 86.3596
  A 2.89 1.57 0.8 0 0 140.8881 87.9698
  A 2.89 1.57 0.8 0 0 143.7997 86.4404
  Z"
/>
<ellipse fill="#f4e7d5" cx="0.00" cy="0.00" transform="translate(310.87,94.09) rotate(90.3)" rx="10.44" ry="9.14"/>
<ellipse fill="#000000" cx="0.00" cy="0.00" transform="translate(140.91,86.40) rotate(0.8)" rx="2.89" ry="1.57"/>
<rect fill="#f4e7d5" x="-10.87" y="-7.31" transform="translate(129.62,102.55) rotate(-0.3)" width="21.74" height="14.62" rx="0.98"/>
<path fill="#f6fa70" d="
  M 404.48 118.90
  C 395.19 127.01 379.25 119.71 371.41 113.05
  A 0.60 0.60 0.0 0 1 371.83 111.99
  C 378.90 112.40 384.91 108.61 390.95 105.43
  Q 394.99 103.30 397.48 103.29
  C 406.06 103.27 412.18 112.17 404.48 118.90
  Z"
/>
<path fill="#ff0060" d="
  M 362.97 116.47
  Q 363.07 115.39 363.67 116.30
  C 368.62 123.84 374.03 125.75 381.63 129.65
  C 388.46 133.16 391.31 139.85 386.99 146.94
  C 383.93 151.95 374.72 148.40 371.48 145.87
  C 363.45 139.63 362.08 126.14 362.97 116.47
  Z"
/>
<path fill="#00dfa2" d="
  M 341.21 145.08
  C 339.22 134.41 347.69 123.49 355.44 117.23
  A 0.42 0.42 0.0 0 1 356.11 117.66
  C 354.07 125.48 356.64 131.31 359.16 138.36
  C 364.98 154.66 344.47 162.48 341.21 145.08
  Z"
/>
</svg>
